<svg width="40" height="41" viewBox="0 0 40 41" fill="none" xmlns="http://www.w3.org/2000/svg">
<path d="M13 4.24097H27C32.3333 4.24097 36.6667 8.5743 36.6667 13.9076V27.9076C36.6667 30.4714 35.6482 32.9301 33.8354 34.743C32.0225 36.5559 29.5638 37.5743 27 37.5743H13C7.66666 37.5743 3.33333 33.241 3.33333 27.9076V13.9076C3.33333 11.3439 4.35178 8.88512 6.16463 7.07227C7.97748 5.25942 10.4362 4.24097 13 4.24097ZM12.6667 7.5743C11.0754 7.5743 9.54924 8.20644 8.42402 9.33166C7.2988 10.4569 6.66666 11.983 6.66666 13.5743V28.241C6.66666 31.5576 9.35 34.241 12.6667 34.241H27.3333C28.9246 34.241 30.4508 33.6088 31.576 32.4836C32.7012 31.3584 33.3333 29.8323 33.3333 28.241V13.5743C33.3333 10.2576 30.65 7.5743 27.3333 7.5743H12.6667ZM28.75 10.0743C29.3025 10.0743 29.8324 10.2938 30.2231 10.6845C30.6138 11.0752 30.8333 11.6051 30.8333 12.1576C30.8333 12.7102 30.6138 13.2401 30.2231 13.6308C29.8324 14.0215 29.3025 14.241 28.75 14.241C28.1975 14.241 27.6676 14.0215 27.2769 13.6308C26.8862 13.2401 26.6667 12.7102 26.6667 12.1576C26.6667 11.6051 26.8862 11.0752 27.2769 10.6845C27.6676 10.2938 28.1975 10.0743 28.75 10.0743ZM20 12.5743C22.2101 12.5743 24.3298 13.4523 25.8926 15.0151C27.4554 16.5779 28.3333 18.6975 28.3333 20.9076C28.3333 23.1178 27.4554 25.2374 25.8926 26.8002C24.3298 28.363 22.2101 29.241 20 29.241C17.7899 29.241 15.6702 28.363 14.1074 26.8002C12.5446 25.2374 11.6667 23.1178 11.6667 20.9076C11.6667 18.6975 12.5446 16.5779 14.1074 15.0151C15.6702 13.4523 17.7899 12.5743 20 12.5743ZM20 15.9076C18.6739 15.9076 17.4021 16.4344 16.4645 17.3721C15.5268 18.3098 15 19.5816 15 20.9076C15 22.2337 15.5268 23.5055 16.4645 24.4432C17.4021 25.3808 18.6739 25.9076 20 25.9076C21.3261 25.9076 22.5978 25.3808 23.5355 24.4432C24.4732 23.5055 25 22.2337 25 20.9076C25 19.5816 24.4732 18.3098 23.5355 17.3721C22.5978 16.4344 21.3261 15.9076 20 15.9076Z" fill="white"/>
</svg>
