<svg width="40" height="41" viewBox="0 0 40 41" fill="none" xmlns="http://www.w3.org/2000/svg">
<path d="M20 4.30774C10.8333 4.30774 3.33331 11.7911 3.33331 21.0077C3.33331 29.3411 9.43331 36.2577 17.4 37.5077V25.8411H13.1666V21.0077H17.4V17.3244C17.4 13.1411 19.8833 10.8411 23.7 10.8411C25.5166 10.8411 27.4167 11.1577 27.4167 11.1577V15.2744H25.3166C23.25 15.2744 22.6 16.5577 22.6 17.8744V21.0077H27.2333L26.4833 25.8411H22.6V37.5077C26.5274 36.8875 30.1037 34.8836 32.6832 31.8578C35.2627 28.8321 36.6756 24.9838 36.6666 21.0077C36.6666 11.7911 29.1666 4.30774 20 4.30774Z" fill="white"/>
</svg>
