<svg width="50" height="50" viewBox="0 0 50 50" fill="none" xmlns="http://www.w3.org/2000/svg">
<path d="M47.0685 0.00606092C42.3115 0.353157 32.8565 1.61654 27.0196 6.21027C26.6168 6.52723 26.3885 7.09085 26.3885 7.68013V48.2904C26.3885 49.5795 27.4849 50.3942 28.4093 49.796C34.4147 45.9099 43.0997 44.8496 47.394 44.5594C48.8602 44.4601 50 42.9489 50 41.1376V3.43238C50.0009 1.45583 48.6675 -0.11001 47.0685 0.00606092ZM22.9804 6.21027C17.1444 1.61654 7.68937 0.354274 2.93234 0.00606092C1.33336 -0.11001 0 1.45583 0 3.43238V41.1387C0 42.9512 1.13978 44.4623 2.60595 44.5605C6.90203 44.8507 15.5914 45.9121 21.5967 49.8005C22.5186 50.3976 23.6115 49.5839 23.6115 48.2982V7.66004C23.6115 7.06964 23.3841 6.52835 22.9804 6.21027Z" fill="white"/>
</svg>
