<?xml version="1.0" encoding="UTF-8" standalone="no"?>
<svg
   xmlns:dc="http://purl.org/dc/elements/1.1/"
   xmlns:cc="http://creativecommons.org/ns#"
   xmlns:rdf="http://www.w3.org/1999/02/22-rdf-syntax-ns#"
   xmlns:svg="http://www.w3.org/2000/svg"
   xmlns="http://www.w3.org/2000/svg"
   xmlns:sodipodi="http://sodipodi.sourceforge.net/DTD/sodipodi-0.dtd"
   xmlns:inkscape="http://www.inkscape.org/namespaces/inkscape"
   width="50"
   height="50"
   viewBox="0 0 50 49.999999"
   fill="none"
   version="1.1"
   id="svg42"
   sodipodi:docname="wsp.svg"
   inkscape:version="1.0 (4035a4fb49, 2020-05-01)">
  <metadata
     id="metadata46">
    <rdf:RDF>
      <cc:Work
         rdf:about="">
        <dc:format>image/svg+xml</dc:format>
        <dc:type
           rdf:resource="http://purl.org/dc/dcmitype/StillImage" />
        <dc:title></dc:title>
      </cc:Work>
    </rdf:RDF>
  </metadata>
  <sodipodi:namedview
     inkscape:document-rotation="0"
     pagecolor="#ffffff"
     bordercolor="#666666"
     borderopacity="1"
     objecttolerance="10"
     gridtolerance="10"
     guidetolerance="10"
     inkscape:pageopacity="0"
     inkscape:pageshadow="2"
     inkscape:window-width="2560"
     inkscape:window-height="1346"
     id="namedview44"
     showgrid="false"
     inkscape:zoom="2.5023256"
     inkscape:cx="-13.334253"
     inkscape:cy="57.503103"
     inkscape:window-x="-11"
     inkscape:window-y="-11"
     inkscape:window-maximized="1"
     inkscape:current-layer="svg42" />
  <g
     filter="url(#filter0_d)"
     id="g8"
     transform="matrix(0.24038462,0,0,0.23241572,-0.18396117,0)">
    <g
       filter="url(#filter1_d)"
       id="g4">
      <path
         d="m 56.8607,177.344 3.2694,1.673 c 13.6248,8.363 28.8832,12.266 44.1419,12.266 47.957,0 87.194,-40.145 87.194,-89.212 0,-23.4183 -9.265,-46.2792 -25.613,-63.0068 -16.349,-16.7276 -38.148,-26.206 -61.581,-26.206 -47.9559,0 -87.1935,40.1456 -86.6482,89.7708 0,16.726 4.9046,32.897 13.0787,46.836 l 2.1796,3.346 -8.7186,32.897 z"
         fill="#00e676"
         id="path2" />
    </g>
    <path
       d="M 175.117,30.1092 C 156.588,10.5943 130.975,0 104.817,0 49.2321,0 4.5453,46.2789 5.08983,102.594 c 0,17.843 4.90461,35.128 13.07947,50.74 L 4,206.304 56.8609,192.365 c 14.7138,8.364 31.062,12.267 47.4121,12.267 55.04,0 99.727,-46.28 99.727,-102.594 0,-27.3221 -10.355,-52.971 -28.883,-71.9288 z m -70.3,157.2378 c -14.7137,0 -29.4275,-3.902 -41.9617,-11.708 l -3.2695,-1.673 -31.6073,8.363 8.1741,-31.781 -2.1796,-3.346 C 9.99444,107.614 21.4388,55.2003 60.6757,30.6664 99.9126,6.13327 150.594,17.8427 174.572,57.9883 198.55,98.134 187.106,149.989 147.87,174.523 c -12.535,8.363 -27.794,12.824 -43.053,12.824 z m 47.956,-61.89 -5.994,-2.788 c 0,0 -8.719,-3.903 -14.169,-6.692 -0.545,0 -1.089,-0.557 -1.635,-0.557 -1.635,0 -2.725,0.557 -3.814,1.115 0,0 -0.545,0.558 -8.175,9.479 -0.545,1.115 -1.635,1.673 -2.724,1.673 h -0.546 c -0.544,0 -1.634,-0.558 -2.179,-1.115 l -2.725,-1.115 c -5.995,-2.788 -11.444,-6.134 -15.8041,-10.595 -1.0898,-1.115 -2.7249,-2.23 -3.8147,-3.345 -3.8148,-3.903 -7.6296,-8.364 -10.3538,-13.3822 l -0.5453,-1.1151 c -0.5445,-0.5579 -0.5445,-1.1151 -1.0898,-2.2301 0,-1.1151 0,-2.2302 0.5453,-2.7881 0,0 2.1797,-2.7881 3.814,-4.4603 1.0906,-1.1159 1.6351,-2.788 2.725,-3.9031 1.0898,-1.673 1.6351,-3.9032 1.0898,-5.5762 -0.5445,-2.788 -7.0843,-17.8426 -8.7186,-21.1878 -1.0906,-1.673 -2.1797,-2.2302 -3.8148,-2.7881 h -5.9945 c -1.0906,0 -2.1796,0.5579 -3.2702,0.5579 l -0.5453,0.5572 c -1.0898,0.5579 -2.1797,1.673 -3.2695,2.2301 -1.0898,1.1159 -1.6351,2.2301 -2.725,3.346 -3.8147,5.0182 -5.9944,11.1515 -5.9944,17.2847 0,4.4603 1.0898,8.9214 2.725,12.8245 l 0.5453,1.673 c 4.9046,10.5936 11.4435,20.0726 20.1637,28.4366 l 2.1797,2.23 c 1.6343,1.673 3.2695,2.788 4.3593,4.46 11.4443,10.037 24.5229,17.286 39.2369,21.189 1.635,0.557 3.815,0.557 5.45,1.115 h 5.449 c 2.725,0 5.994,-1.115 8.175,-2.23 1.634,-1.115 2.724,-1.115 3.814,-2.23 l 1.09,-1.116 c 1.09,-1.115 2.18,-1.673 3.27,-2.788 1.09,-1.115 2.18,-2.23 2.725,-3.346 1.09,-2.23 1.634,-5.018 2.18,-7.805 v -3.903 c 0,0 -0.546,-0.558 -1.636,-1.115 z"
       fill="#ffffff"
       id="path6" />
  </g>
  <defs
     id="defs40">
    <filter
       id="filter0_d"
       x="0"
       y="0"
       width="208"
       height="214.304"
       filterUnits="userSpaceOnUse"
       color-interpolation-filters="sRGB">
      <feFlood
         flood-opacity="0"
         result="BackgroundImageFix"
         id="feFlood10" />
      <feColorMatrix
         in="SourceAlpha"
         type="matrix"
         values="0 0 0 0 0 0 0 0 0 0 0 0 0 0 0 0 0 0 127 0"
         id="feColorMatrix12" />
      <feOffset
         dy="4"
         id="feOffset14" />
      <feGaussianBlur
         stdDeviation="2"
         id="feGaussianBlur16" />
      <feColorMatrix
         type="matrix"
         values="0 0 0 0 0 0 0 0 0 0 0 0 0 0 0 0 0 0 0.25 0"
         id="feColorMatrix18" />
      <feBlend
         mode="normal"
         in2="BackgroundImageFix"
         result="effect1_dropShadow"
         id="feBlend20" />
      <feBlend
         mode="normal"
         in="SourceGraphic"
         in2="effect1_dropShadow"
         result="shape"
         id="feBlend22" />
    </filter>
    <filter
       id="filter1_d"
       x="13.6182"
       y="12.8582"
       width="181.847"
       height="186.425"
       filterUnits="userSpaceOnUse"
       color-interpolation-filters="sRGB">
      <feFlood
         flood-opacity="0"
         result="BackgroundImageFix"
         id="feFlood25" />
      <feColorMatrix
         in="SourceAlpha"
         type="matrix"
         values="0 0 0 0 0 0 0 0 0 0 0 0 0 0 0 0 0 0 127 0"
         id="feColorMatrix27" />
      <feOffset
         dy="4"
         id="feOffset29" />
      <feGaussianBlur
         stdDeviation="2"
         id="feGaussianBlur31" />
      <feColorMatrix
         type="matrix"
         values="0 0 0 0 0 0 0 0 0 0 0 0 0 0 0 0 0 0 0.25 0"
         id="feColorMatrix33" />
      <feBlend
         mode="normal"
         in2="BackgroundImageFix"
         result="effect1_dropShadow"
         id="feBlend35" />
      <feBlend
         mode="normal"
         in="SourceGraphic"
         in2="effect1_dropShadow"
         result="shape"
         id="feBlend37" />
    </filter>
  </defs>
</svg>
