<?xml version="1.0" encoding="UTF-8" standalone="no"?>
<svg
   xmlns:dc="http://purl.org/dc/elements/1.1/"
   xmlns:cc="http://creativecommons.org/ns#"
   xmlns:rdf="http://www.w3.org/1999/02/22-rdf-syntax-ns#"
   xmlns:svg="http://www.w3.org/2000/svg"
   xmlns="http://www.w3.org/2000/svg"
   xmlns:sodipodi="http://sodipodi.sourceforge.net/DTD/sodipodi-0.dtd"
   xmlns:inkscape="http://www.inkscape.org/namespaces/inkscape"
   inkscape:version="1.0 (4035a4fb49, 2020-05-01)"
   sodipodi:docname="volume.svg"
   id="svg11"
   version="1.1"
   fill="none"
   viewBox="0 0 25 30"
   height="30"
   width="25">
  <metadata
     id="metadata15">
    <rdf:RDF>
      <cc:Work
         rdf:about="">
        <dc:format>image/svg+xml</dc:format>
        <dc:type
           rdf:resource="http://purl.org/dc/dcmitype/StillImage" />
        <dc:title></dc:title>
      </cc:Work>
    </rdf:RDF>
  </metadata>
  <sodipodi:namedview
     inkscape:current-layer="g4"
     inkscape:window-maximized="1"
     inkscape:window-y="-11"
     inkscape:window-x="-11"
     inkscape:cy="15.937859"
     inkscape:cx="13.453039"
     inkscape:zoom="17.933333"
     showgrid="false"
     id="namedview13"
     inkscape:window-height="1346"
     inkscape:window-width="2560"
     inkscape:pageshadow="2"
     inkscape:pageopacity="0"
     guidetolerance="10"
     gridtolerance="10"
     objecttolerance="10"
     borderopacity="1"
     bordercolor="#666666"
     pagecolor="#ffffff" />
  <g
     id="g4"
     clip-path="url(#clip0)">
    <path
       style="fill:#ffffff;fill-opacity:1"
       id="path2"
       stroke="white"
       fill="black"
       d="M20.3234 11.369C20.0767 11.7729 20.214 12.3116 20.7345 12.5705C21.7212 13.059 22.375 14.0007 22.375 15.0587C22.375 16.1164 21.7214 17.0582 20.7353 17.5462M20.3234 11.369L20.513 17.0983M20.3234 11.369C20.5937 10.9297 21.2544 10.7348 21.799 11.0024L20.3234 11.369ZM20.7353 17.5462C20.7351 17.5463 20.7349 17.5464 20.7347 17.5465L20.513 17.0983M20.7353 17.5462C20.7354 17.5461 20.7355 17.5461 20.7355 17.5461L20.513 17.0983M20.7353 17.5462C20.2146 17.805 20.0773 18.3438 20.3241 18.7478M20.513 17.0983C19.7572 17.4739 19.4818 18.3288 19.8978 19.009M20.3241 18.7478L19.8978 19.009M20.3241 18.7478C20.3242 18.7479 20.3243 18.7481 20.3243 18.7482L19.8978 19.009M20.3241 18.7478L19.8978 19.009M8.20703 9.93366H8.39888L8.54149 9.80532L14.3337 4.59291C14.665 4.29497 15.1298 4.23978 15.5261 4.38626C15.9205 4.53205 16.1667 4.8415 16.1667 5.21608V24.9012C16.1667 25.275 15.9207 25.5848 15.5263 25.7309C15.1304 25.8775 14.6657 25.8226 14.3338 25.5239L14.3338 25.5239L8.54147 20.312L8.39887 20.1837H8.20703H1.5625C0.924647 20.1837 0.5 19.7295 0.5 19.2774V10.8399C0.5 10.3873 0.924505 9.93366 1.5625 9.93366H8.20703ZM21.7992 19.1145C21.7991 19.1146 21.7989 19.1147 21.7988 19.1148L22.0208 19.5628L21.7992 19.1145Z" />
  </g>
  <defs
     id="defs9">
    <clipPath
       id="clip0">
      <rect
         id="rect6"
         fill="white"
         height="30"
         width="25" />
    </clipPath>
  </defs>
</svg>
